<svg width="599" height="148" viewBox="0 0 599 148" fill="none" xmlns="http://www.w3.org/2000/svg">
<path d="M44.75 57.75C49.7083 52 55.9792 49.125 63.5625 49.125C77.9792 49.125 85.2917 57.3542 85.5 73.8125V118H70.3125V74.375C70.3125 69.7083 69.2917 66.4167 67.25 64.5C65.25 62.5417 62.2917 61.5625 58.375 61.5625C52.2917 61.5625 47.75 64.2708 44.75 69.6875V118H29.5625V22H44.75V57.75ZM98.0625 83.5625C98.0625 76.9375 99.375 70.9792 102 65.6875C104.625 60.3542 108.312 56.2708 113.062 53.4375C117.812 50.5625 123.271 49.125 129.438 49.125C138.562 49.125 145.958 52.0625 151.625 57.9375C157.333 63.8125 160.417 71.6042 160.875 81.3125L160.938 84.875C160.938 91.5417 159.646 97.5 157.062 102.75C154.521 108 150.854 112.062 146.062 114.938C141.312 117.812 135.812 119.25 129.562 119.25C120.021 119.25 112.375 116.083 106.625 109.75C100.917 103.375 98.0625 94.8958 98.0625 84.3125V83.5625ZM113.25 84.875C113.25 91.8333 114.688 97.2917 117.562 101.25C120.438 105.167 124.438 107.125 129.562 107.125C134.688 107.125 138.667 105.125 141.5 101.125C144.375 97.125 145.812 91.2708 145.812 83.5625C145.812 76.7292 144.333 71.3125 141.375 67.3125C138.458 63.3125 134.479 61.3125 129.438 61.3125C124.479 61.3125 120.542 63.2917 117.625 67.25C114.708 71.1667 113.25 77.0417 113.25 84.875ZM188.062 50.375L188.5 57.4375C193.25 51.8958 199.75 49.125 208 49.125C217.042 49.125 223.229 52.5833 226.562 59.5C231.479 52.5833 238.396 49.125 247.312 49.125C254.771 49.125 260.312 51.1875 263.938 55.3125C267.604 59.4375 269.479 65.5208 269.562 73.5625V118H254.375V74C254.375 69.7083 253.438 66.5625 251.562 64.5625C249.688 62.5625 246.583 61.5625 242.25 61.5625C238.792 61.5625 235.958 62.5 233.75 64.375C231.583 66.2083 230.062 68.625 229.188 71.625L229.25 118H214.062V73.5C213.854 65.5417 209.792 61.5625 201.875 61.5625C195.792 61.5625 191.479 64.0417 188.938 69V118H173.75V50.375H188.062ZM314.938 119.25C305.312 119.25 297.5 116.229 291.5 110.188C285.542 104.104 282.562 96.0208 282.562 85.9375V84.0625C282.562 77.3125 283.854 71.2917 286.438 66C289.062 60.6667 292.729 56.5208 297.438 53.5625C302.146 50.6042 307.396 49.125 313.188 49.125C322.396 49.125 329.5 52.0625 334.5 57.9375C339.542 63.8125 342.062 72.125 342.062 82.875V89H297.875C298.333 94.5833 300.188 99 303.438 102.25C306.729 105.5 310.854 107.125 315.812 107.125C322.771 107.125 328.438 104.312 332.812 98.6875L341 106.5C338.292 110.542 334.667 113.688 330.125 115.938C325.625 118.146 320.562 119.25 314.938 119.25ZM313.125 61.3125C308.958 61.3125 305.583 62.7708 303 65.6875C300.458 68.6042 298.833 72.6667 298.125 77.875H327.062V76.75C326.729 71.6667 325.375 67.8333 323 65.25C320.625 62.625 317.333 61.3125 313.125 61.3125ZM368.875 57.75C373.833 52 380.104 49.125 387.688 49.125C402.104 49.125 409.417 57.3542 409.625 73.8125V118H394.438V74.375C394.438 69.7083 393.417 66.4167 391.375 64.5C389.375 62.5417 386.417 61.5625 382.5 61.5625C376.417 61.5625 371.875 64.2708 368.875 69.6875V118H353.688V22H368.875V57.75ZM422.188 83.5625C422.188 76.9375 423.5 70.9792 426.125 65.6875C428.75 60.3542 432.438 56.2708 437.188 53.4375C441.938 50.5625 447.396 49.125 453.562 49.125C462.688 49.125 470.083 52.0625 475.75 57.9375C481.458 63.8125 484.542 71.6042 485 81.3125L485.062 84.875C485.062 91.5417 483.771 97.5 481.188 102.75C478.646 108 474.979 112.062 470.188 114.938C465.438 117.812 459.938 119.25 453.688 119.25C444.146 119.25 436.5 116.083 430.75 109.75C425.042 103.375 422.188 94.8958 422.188 84.3125V83.5625ZM437.375 84.875C437.375 91.8333 438.812 97.2917 441.688 101.25C444.562 105.167 448.562 107.125 453.688 107.125C458.812 107.125 462.792 105.125 465.625 101.125C468.5 97.125 469.938 91.2708 469.938 83.5625C469.938 76.7292 468.458 71.3125 465.5 67.3125C462.583 63.3125 458.604 61.3125 453.562 61.3125C448.604 61.3125 444.667 63.2917 441.75 67.25C438.833 71.1667 437.375 77.0417 437.375 84.875ZM535.812 99.625C535.812 96.9167 534.688 94.8542 532.438 93.4375C530.229 92.0208 526.542 90.7708 521.375 89.6875C516.208 88.6042 511.896 87.2292 508.438 85.5625C500.854 81.8958 497.062 76.5833 497.062 69.625C497.062 63.7917 499.521 58.9167 504.438 55C509.354 51.0833 515.604 49.125 523.188 49.125C531.271 49.125 537.792 51.125 542.75 55.125C547.75 59.125 550.25 64.3125 550.25 70.6875H535.062C535.062 67.7708 533.979 65.3542 531.812 63.4375C529.646 61.4792 526.771 60.5 523.188 60.5C519.854 60.5 517.125 61.2708 515 62.8125C512.917 64.3542 511.875 66.4167 511.875 69C511.875 71.3333 512.854 73.1458 514.812 74.4375C516.771 75.7292 520.729 77.0417 526.688 78.375C532.646 79.6667 537.312 81.2292 540.688 83.0625C544.104 84.8542 546.625 87.0208 548.25 89.5625C549.917 92.1042 550.75 95.1875 550.75 98.8125C550.75 104.896 548.229 109.833 543.188 113.625C538.146 117.375 531.542 119.25 523.375 119.25C517.833 119.25 512.896 118.25 508.562 116.25C504.229 114.25 500.854 111.5 498.438 108C496.021 104.5 494.812 100.729 494.812 96.6875H509.562C509.771 100.271 511.125 103.042 513.625 105C516.125 106.917 519.438 107.875 523.562 107.875C527.562 107.875 530.604 107.125 532.688 105.625C534.771 104.083 535.812 102.083 535.812 99.625ZM583.062 33.9375V50.375H595V61.625H583.062V99.375C583.062 101.958 583.562 103.833 584.562 105C585.604 106.125 587.438 106.688 590.062 106.688C591.812 106.688 593.583 106.479 595.375 106.062V117.812C591.917 118.771 588.583 119.25 585.375 119.25C573.708 119.25 567.875 112.812 567.875 99.9375V61.625H556.75V50.375H567.875V33.9375H583.062Z" fill="white"/>
<path d="M44.75 57.75H43.75V60.4409L45.5073 58.403L44.75 57.75ZM85.5 73.8125L86.5001 73.8125L86.4999 73.7998L85.5 73.8125ZM85.5 118V119H86.5V118H85.5ZM70.3125 118H69.3125V119H70.3125V118ZM67.25 64.5L66.5504 65.2145L66.5579 65.2219L66.5656 65.2291L67.25 64.5ZM44.75 69.6875L43.8752 69.203L43.75 69.4291V69.6875H44.75ZM44.75 118V119H45.75V118H44.75ZM29.5625 118H28.5625V119H29.5625V118ZM29.5625 22V21H28.5625V22H29.5625ZM44.75 22H45.75V21H44.75V22ZM45.5073 58.403C50.276 52.873 56.2705 50.125 63.5625 50.125V48.125C55.6879 48.125 49.1407 51.127 43.9927 57.097L45.5073 58.403ZM63.5625 50.125C70.5789 50.125 75.6998 52.1214 79.1119 55.9611C82.5455 59.8252 84.3975 65.7211 84.5001 73.8252L86.4999 73.7998C86.3942 65.4456 84.4857 58.9977 80.6069 54.6326C76.7064 50.2432 70.9628 48.125 63.5625 48.125V50.125ZM84.5 73.8125V118H86.5V73.8125H84.5ZM85.5 117H70.3125V119H85.5V117ZM71.3125 118V74.375H69.3125V118H71.3125ZM71.3125 74.375C71.3125 69.6079 70.2772 65.9702 67.9344 63.7709L66.5656 65.2291C68.3062 66.8631 69.3125 69.8088 69.3125 74.375H71.3125ZM67.9496 63.7855C65.6988 61.5816 62.4476 60.5625 58.375 60.5625V62.5625C62.1358 62.5625 64.8012 63.5018 66.5504 65.2145L67.9496 63.7855ZM58.375 60.5625C55.1806 60.5625 52.3419 61.2752 49.8941 62.7349C47.4472 64.194 45.4461 66.3667 43.8752 69.203L45.6248 70.172C47.0539 67.5916 48.8236 65.7018 50.9184 64.4526C53.0123 63.204 55.4861 62.5625 58.375 62.5625V60.5625ZM43.75 69.6875V118H45.75V69.6875H43.75ZM44.75 117H29.5625V119H44.75V117ZM30.5625 118V22H28.5625V118H30.5625ZM29.5625 23H44.75V21H29.5625V23ZM43.75 22V57.75H45.75V22H43.75ZM102 65.6875L102.896 66.1319L102.897 66.1291L102 65.6875ZM113.062 53.4375L113.575 54.2963L113.58 54.293L113.062 53.4375ZM151.625 57.9375L150.905 58.6317L150.908 58.6344L151.625 57.9375ZM160.875 81.3125L161.875 81.295L161.875 81.2801L161.874 81.2653L160.875 81.3125ZM160.938 84.875H161.938V84.8662L161.937 84.8575L160.938 84.875ZM157.062 102.75L156.165 102.308L156.162 102.314L157.062 102.75ZM146.062 114.938L145.548 114.08L145.545 114.082L146.062 114.938ZM106.625 109.75L105.88 110.417L105.885 110.422L106.625 109.75ZM117.562 101.25L116.753 101.838L116.756 101.842L117.562 101.25ZM141.5 101.125L140.688 100.541L140.684 100.547L141.5 101.125ZM141.375 67.3125L140.567 67.9017L140.571 67.9071L141.375 67.3125ZM117.625 67.25L118.427 67.8473L118.43 67.8432L117.625 67.25ZM99.0625 83.5625C99.0625 77.0728 100.347 71.2694 102.896 66.1319L101.104 65.2431C98.4027 70.6889 97.0625 76.8022 97.0625 83.5625H99.0625ZM102.897 66.1291C105.444 60.9556 109.003 57.0232 113.575 54.2963L112.55 52.5787C107.622 55.5184 103.806 59.7528 101.103 65.2459L102.897 66.1291ZM113.58 54.293C118.157 51.5227 123.433 50.125 129.438 50.125V48.125C123.109 48.125 117.468 49.6023 112.545 52.582L113.58 54.293ZM129.438 50.125C138.326 50.125 145.45 52.9761 150.905 58.6317L152.345 57.2433C146.467 51.1489 138.799 48.125 129.438 48.125V50.125ZM150.908 58.6344C156.415 64.3028 159.427 71.8471 159.876 81.3597L161.874 81.2653C161.406 71.3613 158.251 63.3222 152.342 57.2406L150.908 58.6344ZM159.875 81.33L159.938 84.8925L161.937 84.8575L161.875 81.295L159.875 81.33ZM159.938 84.875C159.938 91.41 158.672 97.2139 156.165 102.308L157.96 103.192C160.62 97.7861 161.938 91.6733 161.938 84.875H159.938ZM156.162 102.314C153.702 107.397 150.165 111.31 145.548 114.08L146.577 115.795C151.543 112.815 155.34 108.603 157.963 103.186L156.162 102.314ZM145.545 114.082C140.97 116.851 135.653 118.25 129.562 118.25V120.25C135.972 120.25 141.655 118.774 146.58 115.793L145.545 114.082ZM129.562 118.25C120.267 118.25 112.903 115.177 107.365 109.078L105.885 110.422C111.847 116.99 119.775 120.25 129.562 120.25V118.25ZM107.37 109.083C101.862 102.932 99.0625 94.7104 99.0625 84.3125H97.0625C97.0625 95.0812 99.971 103.818 105.88 110.417L107.37 109.083ZM99.0625 84.3125V83.5625H97.0625V84.3125H99.0625ZM112.25 84.875C112.25 91.9583 113.712 97.65 116.753 101.838L118.372 100.662C115.663 96.9334 114.25 91.7084 114.25 84.875H112.25ZM116.756 101.842C119.832 106.031 124.14 108.125 129.562 108.125V106.125C124.735 106.125 121.043 104.302 118.369 100.658L116.756 101.842ZM129.562 108.125C134.994 108.125 139.285 105.982 142.316 101.703L140.684 100.547C138.048 104.268 134.381 106.125 129.562 106.125V108.125ZM142.312 101.709C145.361 97.4669 146.812 91.3703 146.812 83.5625H144.812C144.812 91.1714 143.389 96.7831 140.688 100.541L142.312 101.709ZM146.812 83.5625C146.812 76.5935 145.304 70.9439 142.179 66.7179L140.571 67.9071C143.362 71.6811 144.812 76.8648 144.812 83.5625H146.812ZM142.183 66.7233C139.074 62.4596 134.792 60.3125 129.438 60.3125V62.3125C134.167 62.3125 137.843 64.1654 140.567 67.9017L142.183 66.7233ZM129.438 60.3125C124.165 60.3125 119.927 62.4401 116.82 66.6568L118.43 67.8432C121.156 64.1432 124.794 62.3125 129.438 62.3125V60.3125ZM116.823 66.6527C113.721 70.8184 112.25 76.9466 112.25 84.875H114.25C114.25 77.1367 115.696 71.515 118.427 67.8473L116.823 66.6527ZM188.062 50.375L189.061 50.3132L189.002 49.375H188.062V50.375ZM188.5 57.4375L187.502 57.4993L187.654 59.9606L189.259 58.0883L188.5 57.4375ZM226.562 59.5L225.662 59.9341L226.397 61.4593L227.378 60.0794L226.562 59.5ZM263.938 55.3125L263.186 55.9726L263.19 55.9769L263.938 55.3125ZM269.562 73.5625H270.563L270.562 73.5521L269.562 73.5625ZM269.562 118V119H270.562V118H269.562ZM254.375 118H253.375V119H254.375V118ZM233.75 64.375L234.396 65.1384L234.397 65.1373L233.75 64.375ZM229.188 71.625L228.227 71.345L228.187 71.4828L228.188 71.6263L229.188 71.625ZM229.25 118V119H230.251L230.25 117.999L229.25 118ZM214.062 118H213.062V119H214.062V118ZM214.062 73.5H215.062V73.4869L215.062 73.4738L214.062 73.5ZM188.938 69L188.048 68.5438L187.938 68.7586V69H188.938ZM188.938 118V119H189.938V118H188.938ZM173.75 118H172.75V119H173.75V118ZM173.75 50.375V49.375H172.75V50.375H173.75ZM187.064 50.4368L187.502 57.4993L189.498 57.3757L189.061 50.3132L187.064 50.4368ZM189.259 58.0883C193.793 52.7987 199.999 50.125 208 50.125V48.125C199.501 48.125 192.707 50.993 187.741 56.7867L189.259 58.0883ZM208 50.125C212.396 50.125 216.025 50.9657 218.934 52.5917C221.833 54.2121 224.076 56.6448 225.662 59.9341L227.463 59.0659C225.715 55.4385 223.198 52.6838 219.91 50.8458C216.631 49.0134 212.646 48.125 208 48.125V50.125ZM227.378 60.0794C232.096 53.442 238.7 50.125 247.312 50.125V48.125C238.091 48.125 230.863 51.7247 225.747 58.9206L227.378 60.0794ZM247.312 50.125C254.591 50.125 259.812 52.1333 263.186 55.9726L264.689 54.6524C260.813 50.2417 254.95 48.125 247.312 48.125V50.125ZM263.19 55.9769C266.637 59.8544 268.481 65.6644 268.563 73.5729L270.562 73.5521C270.478 65.3772 268.572 59.0206 264.685 54.6481L263.19 55.9769ZM268.562 73.5625V118H270.562V73.5625H268.562ZM269.562 117H254.375V119H269.562V117ZM255.375 118V74H253.375V118H255.375ZM255.375 74C255.375 69.5925 254.417 66.1447 252.292 63.8786L250.833 65.2464C252.458 66.9803 253.375 69.8242 253.375 74H255.375ZM252.292 63.8786C250.142 61.5856 246.703 60.5625 242.25 60.5625V62.5625C246.464 62.5625 249.233 63.5394 250.833 65.2464L252.292 63.8786ZM242.25 60.5625C238.603 60.5625 235.525 61.5558 233.103 63.6127L234.397 65.1373C236.391 63.4442 238.981 62.5625 242.25 62.5625V60.5625ZM233.104 63.6116C230.773 65.5845 229.152 68.1763 228.227 71.345L230.147 71.905C230.973 69.0737 232.394 66.8322 234.396 65.1384L233.104 63.6116ZM228.188 71.6263L228.25 118.001L230.25 117.999L230.187 71.6237L228.188 71.6263ZM229.25 117H214.062V119H229.25V117ZM215.062 118V73.5H213.062V118H215.062ZM215.062 73.4738C214.954 69.3399 213.839 66.066 211.559 63.8325C209.278 61.5981 205.991 60.5625 201.875 60.5625V62.5625C205.676 62.5625 208.378 63.5165 210.16 65.2613C211.942 67.007 212.963 69.7018 213.063 73.5262L215.062 73.4738ZM201.875 60.5625C198.697 60.5625 195.918 61.2107 193.58 62.5549C191.236 63.902 189.396 65.9141 188.048 68.5438L189.827 69.4562C191.021 67.1275 192.607 65.4209 194.577 64.2888C196.551 63.1539 198.969 62.5625 201.875 62.5625V60.5625ZM187.938 69V118H189.938V69H187.938ZM188.938 117H173.75V119H188.938V117ZM174.75 118V50.375H172.75V118H174.75ZM173.75 51.375H188.062V49.375H173.75V51.375ZM291.5 110.188L290.786 110.887L290.79 110.892L291.5 110.188ZM286.438 66L285.54 65.5584L285.539 65.5613L286.438 66ZM297.438 53.5625L296.905 52.7158L297.438 53.5625ZM334.5 57.9375L333.738 58.5856L333.741 58.5887L334.5 57.9375ZM342.062 89V90H343.062V89H342.062ZM297.875 89V88H296.79L296.878 89.0818L297.875 89ZM303.438 102.25L302.73 102.957L302.735 102.962L303.438 102.25ZM332.812 98.6875L333.503 97.964L332.702 97.2002L332.023 98.0736L332.812 98.6875ZM341 106.5L341.831 107.057L342.299 106.358L341.69 105.777L341 106.5ZM330.125 115.938L330.566 116.835L330.569 116.834L330.125 115.938ZM303 65.6875L302.251 65.0244L302.246 65.0305L303 65.6875ZM298.125 77.875L297.134 77.7402L296.98 78.875H298.125V77.875ZM327.062 77.875V78.875H328.062V77.875H327.062ZM327.062 76.75H328.062V76.7172L328.06 76.6846L327.062 76.75ZM323 65.25L322.258 65.9209L322.264 65.9268L323 65.25ZM314.938 118.25C305.541 118.25 297.997 115.31 292.21 109.483L290.79 110.892C297.003 117.148 305.084 120.25 314.938 120.25V118.25ZM292.214 109.488C286.472 103.625 283.562 95.8108 283.562 85.9375H281.562C281.562 96.2308 284.611 104.583 290.786 110.887L292.214 109.488ZM283.562 85.9375V84.0625H281.562V85.9375H283.562ZM283.562 84.0625C283.562 77.4423 284.829 71.575 287.336 66.4387L285.539 65.5613C282.88 71.0083 281.562 77.1827 281.562 84.0625H283.562ZM287.335 66.4416C289.884 61.2626 293.429 57.2621 297.97 54.4092L296.905 52.7158C292.029 55.7796 288.241 60.0707 285.54 65.5584L287.335 66.4416ZM297.97 54.4092C302.512 51.5553 307.576 50.125 313.188 50.125V48.125C307.216 48.125 301.78 49.653 296.905 52.7158L297.97 54.4092ZM313.188 50.125C322.165 50.125 328.966 52.9774 333.738 58.5856L335.262 57.2894C330.034 51.1476 322.626 48.125 313.188 48.125V50.125ZM333.741 58.5887C338.576 64.2228 341.062 72.2715 341.062 82.875H343.062C343.062 71.9785 340.507 63.4022 335.259 57.2863L333.741 58.5887ZM341.062 82.875V89H343.062V82.875H341.062ZM342.062 88H297.875V90H342.062V88ZM296.878 89.0818C297.352 94.8476 299.278 99.505 302.73 102.957L304.145 101.543C301.097 98.495 299.315 94.3191 298.872 88.9182L296.878 89.0818ZM302.735 102.962C306.228 106.411 310.612 108.125 315.812 108.125V106.125C311.096 106.125 307.23 104.589 304.14 101.538L302.735 102.962ZM315.812 108.125C323.088 108.125 329.043 105.163 333.602 99.3014L332.023 98.0736C327.832 103.462 322.454 106.125 315.812 106.125V108.125ZM332.122 99.411L340.31 107.223L341.69 105.777L333.503 97.964L332.122 99.411ZM340.169 105.943C337.562 109.834 334.073 112.866 329.681 115.041L330.569 116.834C335.26 114.509 339.021 111.249 341.831 107.057L340.169 105.943ZM329.684 115.04C325.338 117.173 320.429 118.25 314.938 118.25V120.25C320.696 120.25 325.912 119.119 330.566 116.835L329.684 115.04ZM313.125 60.3125C308.695 60.3125 305.039 61.8773 302.251 65.0245L303.749 66.3505C306.128 63.6644 309.222 62.3125 313.125 62.3125V60.3125ZM302.246 65.0305C299.538 68.1385 297.86 72.4059 297.134 77.7402L299.116 78.0098C299.807 72.9274 301.379 69.0699 303.754 66.3445L302.246 65.0305ZM298.125 78.875H327.062V76.875H298.125V78.875ZM328.062 77.875V76.75H326.062V77.875H328.062ZM328.06 76.6846C327.719 71.4734 326.322 67.3858 323.736 64.5732L322.264 65.9268C324.428 68.2809 325.74 71.8599 326.065 76.8154L328.06 76.6846ZM323.742 64.5791C321.141 61.705 317.558 60.3125 313.125 60.3125V62.3125C317.109 62.3125 320.109 63.545 322.258 65.9209L323.742 64.5791ZM368.875 57.75H367.875V60.4409L369.632 58.403L368.875 57.75ZM409.625 73.8125L410.625 73.8125L410.625 73.7998L409.625 73.8125ZM409.625 118V119H410.625V118H409.625ZM394.438 118H393.438V119H394.438V118ZM391.375 64.5L390.675 65.2145L390.683 65.2219L390.691 65.2291L391.375 64.5ZM368.875 69.6875L368 69.203L367.875 69.4291V69.6875H368.875ZM368.875 118V119H369.875V118H368.875ZM353.688 118H352.688V119H353.688V118ZM353.688 22V21H352.688V22H353.688ZM368.875 22H369.875V21H368.875V22ZM369.632 58.403C374.401 52.873 380.395 50.125 387.688 50.125V48.125C379.813 48.125 373.266 51.127 368.118 57.097L369.632 58.403ZM387.688 50.125C394.704 50.125 399.825 52.1214 403.237 55.9611C406.671 59.8252 408.522 65.7211 408.625 73.8252L410.625 73.7998C410.519 65.4456 408.611 58.9977 404.732 54.6326C400.831 50.2432 395.088 48.125 387.688 48.125V50.125ZM408.625 73.8125V118H410.625V73.8125H408.625ZM409.625 117H394.438V119H409.625V117ZM395.438 118V74.375H393.438V118H395.438ZM395.438 74.375C395.438 69.6079 394.402 65.9702 392.059 63.7709L390.691 65.2291C392.431 66.8631 393.438 69.8088 393.438 74.375H395.438ZM392.075 63.7855C389.824 61.5816 386.573 60.5625 382.5 60.5625V62.5625C386.261 62.5625 388.926 63.5018 390.675 65.2145L392.075 63.7855ZM382.5 60.5625C379.306 60.5625 376.467 61.2752 374.019 62.7349C371.572 64.194 369.571 66.3667 368 69.203L369.75 70.172C371.179 67.5916 372.949 65.7018 375.043 64.4526C377.137 63.204 379.611 62.5625 382.5 62.5625V60.5625ZM367.875 69.6875V118H369.875V69.6875H367.875ZM368.875 117H353.688V119H368.875V117ZM354.688 118V22H352.688V118H354.688ZM353.688 23H368.875V21H353.688V23ZM367.875 22V57.75H369.875V22H367.875ZM426.125 65.6875L427.021 66.1319L427.022 66.1291L426.125 65.6875ZM437.188 53.4375L437.7 54.2963L437.705 54.293L437.188 53.4375ZM475.75 57.9375L475.03 58.6317L475.033 58.6344L475.75 57.9375ZM485 81.3125L486 81.295L486 81.2801L485.999 81.2653L485 81.3125ZM485.062 84.875H486.062V84.8662L486.062 84.8575L485.062 84.875ZM481.188 102.75L480.29 102.308L480.287 102.314L481.188 102.75ZM470.188 114.938L469.673 114.08L469.67 114.082L470.188 114.938ZM430.75 109.75L430.005 110.417L430.01 110.422L430.75 109.75ZM441.688 101.25L440.878 101.838L440.881 101.842L441.688 101.25ZM465.625 101.125L464.813 100.541L464.809 100.547L465.625 101.125ZM465.5 67.3125L464.692 67.9017L464.696 67.9071L465.5 67.3125ZM441.75 67.25L442.552 67.8473L442.555 67.8432L441.75 67.25ZM423.188 83.5625C423.188 77.0728 424.472 71.2694 427.021 66.1319L425.229 65.2431C422.528 70.6889 421.188 76.8022 421.188 83.5625H423.188ZM427.022 66.1291C429.569 60.9556 433.128 57.0232 437.7 54.2963L436.675 52.5787C431.747 55.5184 427.931 59.7528 425.228 65.2459L427.022 66.1291ZM437.705 54.293C442.282 51.5227 447.558 50.125 453.562 50.125V48.125C447.234 48.125 441.593 49.6023 436.67 52.582L437.705 54.293ZM453.562 50.125C462.451 50.125 469.575 52.9761 475.03 58.6317L476.47 57.2433C470.592 51.1489 462.924 48.125 453.562 48.125V50.125ZM475.033 58.6344C480.54 64.3028 483.552 71.8471 484.001 81.3597L485.999 81.2653C485.531 71.3613 482.376 63.3222 476.467 57.2406L475.033 58.6344ZM484 81.33L484.063 84.8925L486.062 84.8575L486 81.295L484 81.33ZM484.062 84.875C484.062 91.41 482.797 97.2139 480.29 102.308L482.085 103.192C484.745 97.7861 486.062 91.6733 486.062 84.875H484.062ZM480.287 102.314C477.827 107.397 474.29 111.31 469.673 114.08L470.702 115.795C475.668 112.815 479.465 108.603 482.088 103.186L480.287 102.314ZM469.67 114.082C465.095 116.851 459.778 118.25 453.688 118.25V120.25C460.097 120.25 465.78 118.774 470.705 115.793L469.67 114.082ZM453.688 118.25C444.392 118.25 437.028 115.177 431.49 109.078L430.01 110.422C435.972 116.99 443.9 120.25 453.688 120.25V118.25ZM431.495 109.083C425.987 102.932 423.188 94.7104 423.188 84.3125H421.188C421.188 95.0812 424.096 103.818 430.005 110.417L431.495 109.083ZM423.188 84.3125V83.5625H421.188V84.3125H423.188ZM436.375 84.875C436.375 91.9583 437.837 97.65 440.878 101.838L442.497 100.662C439.788 96.9334 438.375 91.7084 438.375 84.875H436.375ZM440.881 101.842C443.957 106.031 448.265 108.125 453.688 108.125V106.125C448.86 106.125 445.168 104.302 442.494 100.658L440.881 101.842ZM453.688 108.125C459.119 108.125 463.41 105.982 466.441 101.703L464.809 100.547C462.173 104.268 458.506 106.125 453.688 106.125V108.125ZM466.437 101.709C469.486 97.4669 470.938 91.3703 470.938 83.5625H468.938C468.938 91.1714 467.514 96.7831 464.813 100.541L466.437 101.709ZM470.938 83.5625C470.938 76.5935 469.429 70.9439 466.304 66.7179L464.696 67.9071C467.487 71.6811 468.938 76.8648 468.938 83.5625H470.938ZM466.308 66.7233C463.199 62.4596 458.917 60.3125 453.562 60.3125V62.3125C458.292 62.3125 461.968 64.1654 464.692 67.9017L466.308 66.7233ZM453.562 60.3125C448.29 60.3125 444.052 62.4401 440.945 66.6568L442.555 67.8432C445.281 64.1432 448.919 62.3125 453.562 62.3125V60.3125ZM440.948 66.6527C437.846 70.8184 436.375 76.9466 436.375 84.875H438.375C438.375 77.1367 439.821 71.515 442.552 67.8473L440.948 66.6527ZM532.438 93.4375L531.898 94.2792L531.905 94.2837L532.438 93.4375ZM508.438 85.5625L508.002 86.4628L508.003 86.4633L508.438 85.5625ZM504.438 55L505.061 55.7822L504.438 55ZM542.75 55.125L542.122 55.9033L542.125 55.9059L542.75 55.125ZM550.25 70.6875V71.6875H551.25V70.6875H550.25ZM535.062 70.6875H534.062V71.6875H535.062V70.6875ZM531.812 63.4375L531.142 64.1794L531.15 64.1865L531.812 63.4375ZM515 62.8125L514.413 62.003L514.405 62.0087L515 62.8125ZM526.688 78.375L526.469 79.3509L526.476 79.3523L526.688 78.375ZM540.688 83.0625L540.21 83.9412L540.217 83.9447L540.223 83.9481L540.688 83.0625ZM548.25 89.5625L547.407 90.1012L547.414 90.1109L548.25 89.5625ZM543.188 113.625L543.784 114.427L543.789 114.424L543.188 113.625ZM494.812 96.6875V95.6875H493.812V96.6875H494.812ZM509.562 96.6875L510.561 96.6295L510.506 95.6875H509.562V96.6875ZM513.625 105L513.008 105.787L513.017 105.794L513.625 105ZM532.688 105.625L533.272 106.437L533.282 106.429L532.688 105.625ZM536.812 99.625C536.812 96.5808 535.518 94.1951 532.97 92.5913L531.905 94.2837C533.857 95.5132 534.812 97.2525 534.812 99.625H536.812ZM532.977 92.5958C530.608 91.0759 526.77 89.797 521.58 88.7088L521.17 90.6662C526.313 91.7446 529.85 92.9657 531.898 94.2792L532.977 92.5958ZM521.58 88.7088C516.465 87.6363 512.236 86.2829 508.872 84.6617L508.003 86.4633C511.556 88.1755 515.951 89.572 521.17 90.6662L521.58 88.7088ZM508.873 84.6622C505.189 82.8812 502.494 80.7329 500.72 78.2472C498.954 75.772 498.062 72.9104 498.062 69.625H496.062C496.062 73.2979 497.067 76.5718 499.092 79.4091C501.11 82.2358 504.102 84.5771 508.002 86.4628L508.873 84.6622ZM498.062 69.625C498.062 64.1223 500.361 59.526 505.061 55.7822L503.814 54.2178C498.681 58.3073 496.062 63.461 496.062 69.625H498.062ZM505.061 55.7822C509.766 52.034 515.782 50.125 523.188 50.125V48.125C515.426 48.125 508.943 50.1327 503.814 54.2178L505.061 55.7822ZM523.188 50.125C531.105 50.125 537.385 52.0817 542.122 55.9033L543.378 54.3467C538.198 50.1683 531.437 48.125 523.188 48.125V50.125ZM542.125 55.9059C546.889 59.7171 549.25 64.6178 549.25 70.6875H551.25C551.25 64.0072 548.611 58.5329 543.375 54.3441L542.125 55.9059ZM550.25 69.6875H535.062V71.6875H550.25V69.6875ZM536.062 70.6875C536.062 67.4871 534.858 64.7968 532.475 62.6885L531.15 64.1865C533.1 65.9116 534.062 68.0546 534.062 70.6875H536.062ZM532.483 62.6956C530.093 60.5355 526.96 59.5 523.188 59.5V61.5C526.582 61.5 529.199 62.4228 531.142 64.1794L532.483 62.6956ZM523.188 59.5C519.7 59.5 516.75 60.3077 514.413 62.0031L515.587 63.6219C517.5 62.234 520.008 61.5 523.188 61.5V59.5ZM514.405 62.0087C512.068 63.7382 510.875 66.0984 510.875 69H512.875C512.875 66.7349 513.765 64.9702 515.595 63.6163L514.405 62.0087ZM510.875 69C510.875 71.6716 512.025 73.7968 514.262 75.2723L515.363 73.6027C513.683 72.4949 512.875 70.995 512.875 69H510.875ZM514.262 75.2723C516.393 76.678 520.524 78.0205 526.469 79.3509L526.906 77.3991C520.934 76.0629 517.149 74.7804 515.363 73.6027L514.262 75.2723ZM526.476 79.3523C532.389 80.6342 536.953 82.1717 540.21 83.9412L541.165 82.1838C537.672 80.2867 532.903 78.6992 526.899 77.3977L526.476 79.3523ZM540.223 83.9481C543.528 85.6811 545.899 87.7415 547.407 90.1012L549.093 89.0238C547.351 86.3002 544.681 84.0273 541.152 82.1769L540.223 83.9481ZM547.414 90.1109C548.954 92.4604 549.75 95.3442 549.75 98.8125H551.75C551.75 95.0308 550.879 91.7479 549.086 89.0141L547.414 90.1109ZM549.75 98.8125C549.75 104.568 547.388 109.215 542.586 112.826L543.789 114.424C549.071 110.452 551.75 105.224 551.75 98.8125H549.75ZM542.591 112.823C537.767 116.411 531.391 118.25 523.375 118.25V120.25C531.692 120.25 538.525 118.339 543.784 114.427L542.591 112.823ZM523.375 118.25C517.955 118.25 513.164 117.272 508.982 115.342L508.143 117.158C512.628 119.228 517.712 120.25 523.375 120.25V118.25ZM508.982 115.342C504.791 113.408 501.563 110.767 499.26 107.432L497.615 108.568C500.145 112.233 503.668 115.092 508.143 117.158L508.982 115.342ZM499.26 107.432C496.953 104.09 495.812 100.515 495.812 96.6875H493.812C493.812 100.943 495.089 104.91 497.615 108.568L499.26 107.432ZM494.812 97.6875H509.562V95.6875H494.812V97.6875ZM508.564 96.7455C508.787 100.574 510.252 103.628 513.008 105.787L514.242 104.213C511.998 102.456 510.755 99.9678 510.561 96.6295L508.564 96.7455ZM513.017 105.794C515.738 107.88 519.286 108.875 523.562 108.875V106.875C519.589 106.875 516.512 105.953 514.233 104.206L513.017 105.794ZM523.562 108.875C527.663 108.875 530.947 108.11 533.272 106.437L532.103 104.813C530.261 106.14 527.462 106.875 523.562 106.875V108.875ZM533.282 106.429C535.604 104.711 536.812 102.42 536.812 99.625H534.812C534.812 101.747 533.937 103.456 532.093 104.821L533.282 106.429ZM583.062 33.9375H584.062V32.9375H583.062V33.9375ZM583.062 50.375H582.062V51.375H583.062V50.375ZM595 50.375H596V49.375H595V50.375ZM595 61.625V62.625H596V61.625H595ZM583.062 61.625V60.625H582.062V61.625H583.062ZM584.562 105L583.803 105.651L583.816 105.665L583.829 105.679L584.562 105ZM595.375 106.062H596.375V104.803L595.148 105.088L595.375 106.062ZM595.375 117.812L595.642 118.776L596.375 118.573V117.812H595.375ZM567.875 61.625H568.875V60.625H567.875V61.625ZM556.75 61.625H555.75V62.625H556.75V61.625ZM556.75 50.375V49.375H555.75V50.375H556.75ZM567.875 50.375V51.375H568.875V50.375H567.875ZM567.875 33.9375V32.9375H566.875V33.9375H567.875ZM582.062 33.9375V50.375H584.062V33.9375H582.062ZM583.062 51.375H595V49.375H583.062V51.375ZM594 50.375V61.625H596V50.375H594ZM595 60.625H583.062V62.625H595V60.625ZM582.062 61.625V99.375H584.062V61.625H582.062ZM582.062 99.375C582.062 102.047 582.572 104.215 583.803 105.651L585.322 104.349C584.553 103.452 584.062 101.87 584.062 99.375H582.062ZM583.829 105.679C585.158 107.115 587.346 107.688 590.062 107.688V105.688C587.529 105.688 586.051 105.135 585.296 104.321L583.829 105.679ZM590.062 107.688C591.893 107.688 593.739 107.47 595.602 107.037L595.148 105.088C593.427 105.489 591.732 105.688 590.062 105.688V107.688ZM594.375 106.062V117.812H596.375V106.062H594.375ZM595.108 116.849C591.726 117.786 588.483 118.25 585.375 118.25V120.25C588.684 120.25 592.107 119.756 595.642 118.776L595.108 116.849ZM585.375 118.25C579.723 118.25 575.659 116.695 572.991 113.75C570.306 110.787 568.875 106.244 568.875 99.9375H566.875C566.875 106.506 568.361 111.619 571.509 115.093C574.674 118.586 579.361 120.25 585.375 120.25V118.25ZM568.875 99.9375V61.625H566.875V99.9375H568.875ZM567.875 60.625H556.75V62.625H567.875V60.625ZM557.75 61.625V50.375H555.75V61.625H557.75ZM556.75 51.375H567.875V49.375H556.75V51.375ZM568.875 50.375V33.9375H566.875V50.375H568.875ZM567.875 34.9375H583.062V32.9375H567.875V34.9375Z" fill="black"/>
</svg>
